<svg xmlns="http://www.w3.org/2000/svg" viewBox="0 0 24 24" width="32" height="32">
  <defs>
    <linearGradient id="memoGradient" x1="0%" y1="0%" x2="100%" y2="100%">
      <stop offset="0%" style="stop-color:#0f5a5a;stop-opacity:1" />
      <stop offset="100%" style="stop-color:#0d7377;stop-opacity:1" />
    </linearGradient>
  </defs>
  
  <!-- Main note body -->
  <rect x="2" y="3" width="18" height="18" rx="2" ry="2" fill="url(#memoGradient)" stroke="#0f766e" stroke-width="0.5"/>
  
  <!-- Folded corner -->
  <polygon points="20,3 20,7 16,3" fill="url(#memoGradient)" stroke="#0f766e" stroke-width="0.5"/>
  
  <!-- Checkboxes -->
  <!-- Unchecked checkbox 1 -->
  <rect x="4" y="6" width="2.5" height="2.5" fill="none" stroke="#ffffff" stroke-width="1" opacity="0.9"/>
  
  <!-- Checked checkbox 2 -->
  <rect x="4" y="9.5" width="2.5" height="2.5" fill="none" stroke="#ffffff" stroke-width="1" opacity="0.9"/>
  <path d="M4.8 10.3 L5.6 11.1 L7.7 8.8" stroke="#ffffff" stroke-width="1" fill="none" opacity="0.9"/>
  
  <!-- Unchecked checkbox 3 -->
  <rect x="4" y="13" width="2.5" height="2.5" fill="none" stroke="#ffffff" stroke-width="1" opacity="0.9"/>
  
  <!-- Checked checkbox 4 -->
  <rect x="4" y="16.5" width="2.5" height="2.5" fill="none" stroke="#ffffff" stroke-width="1" opacity="0.9"/>
  <path d="M4.8 17.3 L5.6 18.1 L7.7 15.8" stroke="#ffffff" stroke-width="1" fill="none" opacity="0.9"/>
  
  <!-- Task descriptions (short lines next to checkboxes) -->
  <line x1="7.5" y1="7.25" x2="16" y2="7.25" stroke="#ffffff" stroke-width="1" opacity="0.7"/>
  <line x1="7.5" y1="10.75" x2="17" y2="10.75" stroke="#ffffff" stroke-width="1" opacity="0.7"/>
  <line x1="7.5" y1="14.25" x2="15" y2="14.25" stroke="#ffffff" stroke-width="1" opacity="0.7"/>
  <line x1="7.5" y1="17.75" x2="16" y2="17.75" stroke="#ffffff" stroke-width="1" opacity="0.7"/>
</svg>